<svg width="3424" height="1034" viewBox="0 0 3424 1034" fill="none" xmlns="http://www.w3.org/2000/svg">
    <g clip-path="url(#clip0_230_9)">
        <rect width="3424" height="1034" fill="white"/>
        <path d="M3424.19 0H-2V1922H3424.19V0Z" fill="#004444"/>
        <path d="M3425.97 158.627C3422.86 158.498 3419.69 158.401 3416.45 158.401C3277.45 158.401 3268.77 277.541 3075.38 277.541C2972.68 277.541 2926.28 219.037 2835.08 219.037C2737.46 219.037 2690.12 277.541 2596.48 277.541C2494.92 277.541 2489.35 207.187 2400.7 207.187C2330.08 207.187 2291.55 265.401 2185.19 265.401C2085.11 265.401 2057.01 158.401 1933.45 158.401C1794.1 158.401 1744.89 277.541 1590.61 277.541C1487.9 277.541 1432.57 219.037 1350.3 219.037C1252.68 219.037 1205.34 277.541 1111.71 277.541C1010.14 277.541 1004.57 207.187 915.92 207.187C845.304 207.187 806.775 265.401 700.414 265.401C600.334 265.401 572.231 158.401 448.677 158.401C325.124 158.401 262.344 281.706 131.635 281.706C83.3275 281.706 42.0459 265.014 -0.433594 238.183V1798.02H3426V158.627H3425.97Z" fill="#125151"/>
        <path d="M3425.97 494.676C3361.73 499.971 3321.87 552.406 3220.86 552.406C3119.84 552.406 3092.67 445.406 2969.12 445.406C2830.12 445.406 2821.44 564.546 2628.05 564.546C2525.35 564.546 2478.95 506.041 2387.74 506.041C2290.13 506.041 2242.79 564.546 2149.15 564.546C2047.58 564.546 2042.02 494.192 1953.37 494.192C1882.75 494.192 1844.22 552.406 1737.86 552.406C1637.78 552.406 1609.68 445.406 1486.12 445.406C1346.77 445.406 1297.56 564.546 1143.28 564.546C1040.57 564.546 985.24 506.041 902.969 506.041C805.35 506.041 758.014 564.546 664.378 564.546C562.809 564.546 557.24 494.192 468.59 494.192C397.974 494.192 359.444 552.406 253.084 552.406C153.004 552.406 124.9 445.406 1.34718 445.406C0.732003 445.406 0.149205 445.406 -0.433594 445.406V1678.65H3426V494.676H3425.97Z" fill="#245E5E"/>
        <path d="M3424.43 750.767C3423.59 750.767 3422.75 750.702 3421.88 750.702C3324.26 750.702 3276.92 809.207 3183.28 809.207C3081.72 809.207 3076.15 738.853 2987.5 738.853C2916.88 738.853 2878.35 797.067 2771.99 797.067C2671.91 797.067 2643.81 690.066 2520.25 690.066C2381.26 690.066 2372.58 809.207 2179.19 809.207C2076.49 809.207 2030.09 750.702 1938.88 750.702C1841.26 750.702 1793.93 809.207 1700.29 809.207C1598.72 809.207 1593.15 738.853 1504.5 738.853C1433.89 738.853 1395.36 797.067 1289 797.067C1188.92 797.067 1160.81 690.066 1037.26 690.066C897.906 690.066 848.691 809.207 694.412 809.207C591.71 809.207 536.376 750.702 454.105 750.702C356.486 750.702 309.15 809.207 215.513 809.207C113.944 809.207 108.376 738.853 19.7254 738.853C12.1491 738.853 4.9612 739.563 -2 740.758V1517.01H3424.43V750.767Z" fill="white"/>
    </g>
    <defs>
        <clipPath id="clip0_230_9">
            <rect width="3424" height="1034" fill="white"/>
        </clipPath>
    </defs>
</svg>
